<svg height="16pt" preserveAspectRatio="xMidYMid meet" viewBox="0 0 16 16" width="16pt" xmlns="http://www.w3.org/2000/svg"><g transform="matrix(.006154 0 0 -.006154 0 16)"><path d="m705 2020 580-580 577 577c318 318 578 579 578 580 0 2-521 3-1157 3h-1158z"/><path d="m2012 1877-582-582 585-585 585-585v1168c0 642-1 1167-3 1167-1 0-264-262-585-583z"/><path d="m0 1293v-1138l570 570 570 570-567 567c-313 313-569 568-570 568-2 0-3-512-3-1137z"/><path d="m710 575-575-575h1150 1150l-575 575c-316 316-575 575-575 575s-259-259-575-575z"/></g></svg>